   The Imaginarium Of Doctor Parnassus 2009 BRRip 720p x264 AAC [VX] [P2PDL] 

Cover:  
http://www.shotpix.com/images/17548788666397324642.png


Release Title: The Imaginarium of Doctor Parnassus (2009)

Genres: Adventure | Fantasy | Mystery

Ratings: 6.9/10 |  
http://www.imdb.com/title/tt1054606/

Plot: A traveling theater company gives its audience much more than they were expecting.

Director: Terry Gilliam

Stars:  Christopher Plummer, Lily Cole, Heath Ledger and Johnny Depp 

Rated: Rated PG-13 for violent images, some sensuality, language and smoking.


General
Format                         : MPEG-4
Format profile                 : Base Media / Version 2
Codec ID                       : mp42
File size                      : 702 MiB
Duration                       : 2h 2mn

Video
ID                             : 1
Format                         : AVC
Format/Info                    : Advanced Video Codec
Width                          : 1 280 pixels
Height                         : 688 pixels
Display aspect ratio           : 1.860
Frame rate                     : 23.976 fps
Color space                    : YUV
Chroma subsampling             : 4:2:0
Bit depth                      : 8 bits
Scan type                      : Progressive
Stream size                    : 613 MiB (87%)
Writing library                : x264 core 128

Audio
ID                             : 2
Format                         : AAC
Format/Info                    : Advanced Audio Codec
Channel positions              : Front: L R
Sampling rate                  : 48.0 KHz
Compression mode               : Lossy
Stream size                    : 84.1 MiB (12%)

Subtitles                      : Yes (English, French, Dutch, Romanian)

Screens:
 
http://www.shotpix.com/images/50527613553299848950.jpg 
http://www.shotpix.com/images/88811755726145005943.jpg 
http://www.shotpix.com/images/62680950357588565101.jpg 
http://www.shotpix.com/images/04632608297837409841.jpg 
http://www.shotpix.com/images/44719731125286915911.jpg 
http://www.shotpix.com/images/92974582301242690505.jpg 
http://www.shotpix.com/images/25052171959636699298.jpg 
http://www.shotpix.com/images/23225490307986983217.jpg

Thumbs:
 
http://www.shotpix.com/images/55040411549785801128.jpg
------------------------------------------------------------------------


Notes:

* Check sample to be sure.
* Recommended to use latest version VLC Media Player.
* Install updated shark007 codecs in case of any kind of problem in playback (For non-VLC Media Player users).
* Alternatively, install Core AVC codecs, the fastest decoder that there is coupled with Community Center Codec Pack and play on Windows Media Player Classic.
* Read NFO.
* Help in seeding as much as you can. 


Greets to: VYTO, SirIvan, K1ng_rulz, staff members at ExtraTorrent, TPB,KAT, 1337x, PublicHD, Ahashare,
SilverTorrent, TorrentMafia, Digtorrent, BTScene, P2PDL, and all others


Encoder Notes: Looking For Early Access To Anything You Can Provide DVDScr, R5, DVDRips, BluRay, Direct Audio, Early Music
Releases, Seedboxes, Links, Dedicated Servers anything u can provide, Advance / Promo CDs/DVDs. If You Got anything to
offer contact me at "prg@hush.com"


Facebook Fan Page: www . facebook . com / p2pdl

Enhanced for best viewing experience. Enjoy!